REM DIRINDEX 1\2,1\3,1\4,1\5\6,1\5\7,1\8
REM DIRNAME cjc115,folder01,folder02,folder03,folder04,folder05,folder06,folder07
TITLE ""
FILE "013 【013】Unit1 (0145 update_0156 suspend).mp3" MP3
  TRACK 01 AUDIO
    TITLE "0:"
    INDEX 01 00:00:00
  TRACK 02 AUDIO
    TITLE "2:cjc115_0434"
    INDEX 01 00:00:07
  TRACK 03 AUDIO
    TITLE "0:"
    INDEX 01 00:01:21
  TRACK 04 AUDIO
    TITLE "3:cjc115_0435"
    INDEX 01 00:01:26
  TRACK 05 AUDIO
    TITLE "0:"
    INDEX 01 00:02:71
  TRACK 06 AUDIO
    TITLE "4:cjc115_0436"
    INDEX 01 00:03:04
  TRACK 07 AUDIO
    TITLE "0:"
    INDEX 01 00:06:49
  TRACK 08 AUDIO
    TITLE "2:cjc115_0437"
    INDEX 01 00:07:52
  TRACK 09 AUDIO
    TITLE "0:"
    INDEX 01 00:09:02
  TRACK 10 AUDIO
    TITLE "3:cjc115_0438"
    INDEX 01 00:09:08
  TRACK 11 AUDIO
    TITLE "0:"
    INDEX 01 00:11:13
  TRACK 12 AUDIO
    TITLE "4:cjc115_0439"
    INDEX 01 00:11:19
  TRACK 13 AUDIO
    TITLE "0:"
    INDEX 01 00:16:00
  TRACK 14 AUDIO
    TITLE "2:cjc115_0440"
    INDEX 01 00:17:00
  TRACK 15 AUDIO
    TITLE "0:"
    INDEX 01 00:18:25
  TRACK 16 AUDIO
    TITLE "3:cjc115_0441"
    INDEX 01 00:18:31
  TRACK 17 AUDIO
    TITLE "0:"
    INDEX 01 00:20:49
  TRACK 18 AUDIO
    TITLE "4:cjc115_0442"
    INDEX 01 00:20:61
  TRACK 19 AUDIO
    TITLE "0:"
    INDEX 01 00:24:16
  TRACK 20 AUDIO
    TITLE "2:cjc115_0443"
    INDEX 01 00:25:25
  TRACK 21 AUDIO
    TITLE "0:"
    INDEX 01 00:26:34
  TRACK 22 AUDIO
    TITLE "3:cjc115_0444"
    INDEX 01 00:26:38
  TRACK 23 AUDIO
    TITLE "0:"
    INDEX 01 00:28:74
  TRACK 24 AUDIO
    TITLE "4:cjc115_0445"
    INDEX 01 00:29:03
  TRACK 25 AUDIO
    TITLE "0:"
    INDEX 01 00:33:21
  TRACK 26 AUDIO
    TITLE "2:cjc115_0446"
    INDEX 01 00:34:26
  TRACK 27 AUDIO
    TITLE "0:"
    INDEX 01 00:35:49
  TRACK 28 AUDIO
    TITLE "3:cjc115_0447"
    INDEX 01 00:35:57
  TRACK 29 AUDIO
    TITLE "0:"
    INDEX 01 00:37:01
  TRACK 30 AUDIO
    TITLE "4:cjc115_0448"
    INDEX 01 00:37:12
  TRACK 31 AUDIO
    TITLE "0:"
    INDEX 01 00:42:18
  TRACK 32 AUDIO
    TITLE "2:cjc115_0449"
    INDEX 01 00:43:21
  TRACK 33 AUDIO
    TITLE "0:"
    INDEX 01 00:44:40
  TRACK 34 AUDIO
    TITLE "3:cjc115_0450"
    INDEX 01 00:44:42
  TRACK 35 AUDIO
    TITLE "0:"
    INDEX 01 00:45:47
  TRACK 36 AUDIO
    TITLE "4:cjc115_0451"
    INDEX 01 00:45:53
  TRACK 37 AUDIO
    TITLE "0:"
    INDEX 01 00:50:62
  TRACK 38 AUDIO
    TITLE "2:cjc115_0452"
    INDEX 01 00:51:65
  TRACK 39 AUDIO
    TITLE "0:"
    INDEX 01 00:53:04
  TRACK 40 AUDIO
    TITLE "3:cjc115_0453"
    INDEX 01 00:53:09
  TRACK 41 AUDIO
    TITLE "0:"
    INDEX 01 00:54:17
  TRACK 42 AUDIO
    TITLE "4:cjc115_0454"
    INDEX 01 00:54:21
  TRACK 43 AUDIO
    TITLE "0:"
    INDEX 01 00:57:64
  TRACK 44 AUDIO
    TITLE "2:cjc115_0455"
    INDEX 01 00:58:71
  TRACK 45 AUDIO
    TITLE "0:"
    INDEX 01 01:00:02
  TRACK 46 AUDIO
    TITLE "3:cjc115_0456"
    INDEX 01 01:00:06
  TRACK 47 AUDIO
    TITLE "0:"
    INDEX 01 01:01:74
  TRACK 48 AUDIO
    TITLE "4:cjc115_0457"
    INDEX 01 01:02:05
  TRACK 49 AUDIO
    TITLE "0:"
    INDEX 01 01:06:04
  TRACK 50 AUDIO
    TITLE "2:cjc115_0458"
    INDEX 01 01:07:12
  TRACK 51 AUDIO
    TITLE "0:"
    INDEX 01 01:08:29
  TRACK 52 AUDIO
    TITLE "3:cjc115_0459"
    INDEX 01 01:08:36
  TRACK 53 AUDIO
    TITLE "0:"
    INDEX 01 01:09:71
  TRACK 54 AUDIO
    TITLE "4:cjc115_0460"
    INDEX 01 01:10:08
  TRACK 55 AUDIO
    TITLE "0:"
    INDEX 01 01:14:43
  TRACK 56 AUDIO
    TITLE "2:cjc115_0461"
    INDEX 01 01:15:48
  TRACK 57 AUDIO
    TITLE "0:"
    INDEX 01 01:17:16
  TRACK 58 AUDIO
    TITLE "3:cjc115_0462"
    INDEX 01 01:17:22
  TRACK 59 AUDIO
    TITLE "0:"
    INDEX 01 01:18:64
  TRACK 60 AUDIO
    TITLE "4:cjc115_0463"
    INDEX 01 01:18:68
  TRACK 61 AUDIO
    TITLE "0:"
    INDEX 01 01:22:07
  TRACK 62 AUDIO
    TITLE "2:cjc115_0464"
    INDEX 01 01:23:11
  TRACK 63 AUDIO
    TITLE "0:"
    INDEX 01 01:24:32
  TRACK 64 AUDIO
    TITLE "3:cjc115_0465"
    INDEX 01 01:24:39
  TRACK 65 AUDIO
    TITLE "0:"
    INDEX 01 01:26:01
  TRACK 66 AUDIO
    TITLE "4:cjc115_0466"
    INDEX 01 01:26:09
  TRACK 67 AUDIO
    TITLE "0:"
    INDEX 01 01:29:25
  TRACK 68 AUDIO
    TITLE "2:cjc115_0467"
    INDEX 01 01:30:30
  TRACK 69 AUDIO
    TITLE "0:"
    INDEX 01 01:31:61
  TRACK 70 AUDIO
    TITLE "3:cjc115_0468"
    INDEX 01 01:31:67
  TRACK 71 AUDIO
    TITLE "0:"
    INDEX 01 01:33:62
  TRACK 72 AUDIO
    TITLE "4:cjc115_0469"
    INDEX 01 01:33:66
  TRACK 73 AUDIO
    TITLE "0:"
    INDEX 01 01:38:73
